<svg version="1.1" xmlns="http://www.w3.org/2000/svg" xmlns:xlink="http://www.w3.org/1999/xlink" width="144.25255" height="133.89725" viewBox="0,0,144.25255,133.89725"><g transform="translate(-220.5891,-98.4891)"><g data-paper-data="{&quot;isPaintingLayer&quot;:true}" fill-rule="nonzero" stroke-miterlimit="10" stroke-dasharray="" stroke-dashoffset="0" style="mix-blend-mode: normal"><path d="M260.1,171.2l12.5,5.3c3.1,1.3 3.7,5.5 1.1,7.6c-2.9,2.3 -7.2,4 -12.7,1.7c-5.7,-2.4 -7.1,-6.8 -7.1,-10.4c0,-3.3 3.3,-5.5 6.2,-4.2z" fill="#000000" stroke="none" stroke-width="1" stroke-linecap="butt" stroke-linejoin="miter"/><g><g fill="#000000" stroke="none" stroke-width="1" stroke-linecap="butt" stroke-linejoin="miter"><g><path d="M258.4,129.5c-0.5,1.3 -1.2,2.4 -1.9,3.5c-2,3.2 -4.7,5.8 -7.7,7.7c-1.4,0.9 -2.9,1.6 -4.4,2.2c-6.8,-3.5 -14.5,-6.5 -22.1,-9c1.7,-2.9 3.5,-5.6 5.4,-8.4c1.6,-2.3 3.4,-4.6 5.2,-6.9c2.4,-3 5,-6 7.8,-8.8c3.2,-3.3 6.7,-6.5 10.4,-9.6c8.6,6.5 11.9,18.6 7.3,29.3z"/><path d="M249.8,139.1c-0.3,0.6 -0.6,1.1 -1,1.6c-1.4,0.9 -2.9,1.6 -4.4,2.2c-6.8,-3.5 -14.5,-6.5 -22.1,-9c1.7,-2.9 3.5,-5.6 5.4,-8.4c1.6,-2.3 3.4,-4.6 5.2,-6.9c1.3,0.4 2.7,0.8 4,1.4c3.4,1.5 6.4,3.5 8.6,5.7c4.2,4.3 6,9.3 4.3,13.4z"/><path d="M246.3,124.2c-0.2,0.5 -0.5,1.1 -0.8,1.6c-2.8,4.4 -8.3,6.4 -13,4.3c-2.2,-0.9 -3.8,-2.6 -4.8,-4.6c1.6,-2.3 3.4,-4.6 5.2,-6.9c2.4,-3 5,-5.9 7.8,-8.8c0.2,0.1 0.4,0.1 0.6,0.2c5.1,2.4 7.4,8.7 5,14.2z"/></g></g><path d="M258.4,129.5c-0.5,1.3 -1.2,2.4 -1.9,3.5c-2,3.2 -4.7,5.8 -7.7,7.7c-1.4,0.9 -2.9,1.6 -4.4,2.2c-6.8,-3.5 -14.5,-6.5 -22.1,-9c1.7,-2.9 3.5,-5.6 5.4,-8.4c1.6,-2.3 3.4,-4.6 5.2,-6.9c2.4,-3 5,-6 7.8,-8.8c3.2,-3.3 6.7,-6.5 10.4,-9.6c8.6,6.5 11.9,18.6 7.3,29.3z" fill="none" stroke="#000000" stroke-width="3.4218" stroke-linecap="round" stroke-linejoin="round"/></g><g><g fill="#000000" stroke="none" stroke-width="1" stroke-linecap="butt" stroke-linejoin="miter"><g><path d="M361,174.3c-0.6,1.2 -1.2,2.4 -1.9,3.5c-1.3,2 -2.8,3.7 -4.4,5.2c-0.6,-0.3 -1.2,-0.5 -1.8,-0.8c-11.9,-5.1 -25.2,-9 -36.5,-11.3c-0.1,-0.3 -0.1,-0.5 -0.2,-0.8v0c-0.6,-3.5 -0.6,-7.2 0.4,-10.8c0.3,-1.3 0.8,-2.5 1.3,-3.8c5.4,-12.3 19.4,-18.2 31.3,-13c12,5.2 17.2,19.4 11.8,31.8z"/><path d="M352.9,182.2c-11.9,-5.1 -25.2,-9 -36.5,-11.3c-0.1,-0.3 -0.1,-0.5 -0.2,-0.8v0c0.1,-0.6 0.3,-1.2 0.5,-1.8c1.8,-4 6.7,-6.1 12.6,-5.8c3.2,0.1 6.6,0.9 10,2.4c3.4,1.5 6.3,3.5 8.6,5.7c3.9,3.6 5.8,7.9 5,11.6z"/><path d="M335.17599,174.91872c-5.21468,-2.27314 -7.49192,-8.58947 -5.08637,-14.10791c2.40555,-5.51844 8.58297,-8.14929 13.79765,-5.87615c5.21468,2.27314 7.49192,8.58947 5.08637,14.10791c-2.40555,5.51844 -8.58297,8.14929 -13.79765,5.87615z"/></g></g><path d="M361,174.3c-0.6,1.2 -1.2,2.4 -1.9,3.5c-1.3,2 -2.8,3.7 -4.4,5.2c-0.6,-0.3 -1.2,-0.5 -1.8,-0.8c-11.9,-5.1 -25.2,-9 -36.5,-11.3c-0.1,-0.3 -0.1,-0.5 -0.2,-0.8v0c-0.6,-3.5 -0.6,-7.2 0.4,-10.8c0.3,-1.3 0.8,-2.5 1.3,-3.8c5.4,-12.3 19.4,-18.2 31.3,-13c12,5.2 17.2,19.4 11.8,31.8z" fill="none" stroke="#000000" stroke-width="3.4218" stroke-linecap="round" stroke-linejoin="round"/></g><path d="M298.61962,215.20399c0.20139,-0.03981 -0.19828,15.64473 -17.38023,15.47001c-20.63017,-0.20978 -18.74716,-21.85442 -18.29718,-21.75814c4.14667,0.88721 7.18303,2.56316 15.65394,4.38896c8.39177,1.80874 18.88041,2.12515 20.02347,1.89917z" fill="#000000" stroke="#000000" stroke-width="3.4218" stroke-linecap="butt" stroke-linejoin="miter"/></g></g></svg>