<svg xml:space="preserve" viewBox="0 0 480 360" y="0px" x="0px" xmlns:xlink="http://www.w3.org/1999/xlink" xmlns="http://www.w3.org/2000/svg" id="Layer_1" version="1.1">
<path d="	M213.4,195.1l-0.6,0.7c-1.9,2.2-2.6,5.2-1.8,8l0.5,1.8c0.9,3,0.1,6.2-2.1,8.4l-1.6,1.6c-1.7,1.6-2.6,3.9-2.5,6.2l0.1,3.4
	c0.1,3.1-1.5,5.9-4.2,7.5l-1.4,0.8c-2.3,1.3-3.8,3.7-4.1,6.3l-0.2,1.5c-0.2,2.1-1.2,3.9-2.7,5.3c-5.3-3.6-12-5.1-18.7-3.4
	c-0.2,0-0.3,0.1-0.5,0.1c-13.2,3.6-19.3,17.3-16,29.5l-2.5,0.1c-2.3,0.1-4.5,1.1-6,2.9l-1,1.1c-2.1,2.4-5.4,3.5-8.4,2.6l-3.1-0.8
	c-2.5-0.7-5.1-0.1-7.1,1.4l-2.2,1.7c-2.3,1.8-5.4,2.2-8.1,1.1l-2.5-1c-2.1-0.8-4.4-0.8-6.5,0.1l-2.9,1.3c-2.5,1.1-5.5,0.9-7.8-0.6
	l-3-1.9c-2.1-1.3-4.6-1.6-6.9-0.9l-0.5,0.2c-3,0.9-6.3,0.1-8.4-2.2l-2.3-2.4c-1.7-1.8-4.2-2.7-6.6-2.5l-2.1,0.2
	c-3,0.2-5.9-1.2-7.5-3.6l-1.8-2.7c-1.3-2-3.4-3.3-5.8-3.6l-2.6-0.3c-3.1-0.4-5.6-2.5-6.7-5.4l-0.8-2.2c-0.8-2.1-2.4-3.8-4.4-4.8
	l-3.4-1.5c-2.3-1-4-3-4.6-5.5l-1.2-4.8c-0.5-2-1.8-3.8-3.6-4.9l-1.5-0.9c-2.3-1.5-3.7-4-3.8-6.7l-0.1-3.6c-0.1-2.1-1-4.1-2.5-5.6
	l-2-1.9c-2.2-2.2-3-5.4-2.1-8.3l0.5-1.5c0.8-2.5,0.3-5.3-1.3-7.4l-1.2-1.6c-1.8-2.3-2.1-5.4-1-8.1l1.2-2.9c0.9-2.2,0.8-4.8-0.3-7
	l-0.7-1.4c-1.4-2.8-1.2-6.1,0.6-8.7l1.8-2.5c1.5-2.1,2-4.8,1.2-7.3l-0.5-1.5c-0.9-3-0.1-6.3,2.2-8.4l2.1-2c1.8-1.7,2.7-4,2.6-6.4
	l-0.2-2.6c-0.2-3.3,1.7-6.5,4.7-7.9l0.5-0.2c2.4-1.2,4.2-3.5,4.6-6.2l0.2-1.1c5.3,4.6,12.6,6.8,20.2,4.9c0.1,0,0.3-0.1,0.5-0.1
	c12.5-3.2,19.7-16.4,16.7-28.9c-0.6-2.6-1.6-5.2-3.1-7.7c0.4-0.1,0.8-0.1,1.3-0.2l5.4-0.3c1.9-0.1,3.6-0.8,5.1-2.1l3.1-2.7
	c1.9-1.7,4.5-2.4,7-1.9l3,0.6c1.9,0.4,4,0,5.7-0.9l3-1.7c2.4-1.3,5.2-1.5,7.7-0.3l3.1,1.4c2.5,1.2,5.5,1,7.8-0.4l0.6-0.4
	c2.9-1.8,6.7-1.6,9.4,0.5l1.2,0.9c2.3,1.8,5.4,2.2,8.1,1.2l0.1,0c3.1-1.2,6.6-0.5,9,1.9L149,88c1.8,1.9,4.4,2.8,7.1,2.4l0.4-0.1
	c3.1-0.4,6.1,0.9,7.9,3.4l2.1,2.9c1.5,2.1,3.9,3.4,6.5,3.5l0.6,0c3.1,0.1,5.9,1.9,7.2,4.7l1.7,3.5c1,2.2,3,3.9,5.4,4.5l0.3,0.1
	c3.2,0.8,5.6,3.4,6.1,6.6l0.4,2.5c0.5,2.7,2.2,5,4.7,6.1l0.5,0.2c3.1,1.4,5,4.7,4.8,8.1l-0.1,2.1c-0.2,2.9,1.1,5.6,3.4,7.3l0.4,0.3
	c2.7,1.9,3.9,5.3,3.2,8.5l-0.6,2.6c-0.5,2.3,0,4.7,1.4,6.7l1.1,1.5c1.8,2.5,2.1,5.9,0.7,8.6l-0.9,1.8c-0.6,1.2-0.9,2.5-0.9,3.8
	c0,1.7,0.5,3.4,1.5,4.8C216.3,187.9,216,192.2,213.4,195.1z" stroke-miterlimit="10" stroke-linejoin="round" stroke-linecap="round" stroke-width="2.2093" stroke="#000000" fill="#FDBF00"></path>
</svg>
