<svg version="1.1" xmlns="http://www.w3.org/2000/svg" xmlns:xlink="http://www.w3.org/1999/xlink" width="446.16609" height="442.68433" viewBox="0,0,446.16609,442.68433"><g transform="translate(-21.74481,-20.8891)"><g data-paper-data="{&quot;isPaintingLayer&quot;:true}" fill-rule="nonzero" stroke-miterlimit="10" stroke-dasharray="" stroke-dashoffset="0" style="mix-blend-mode: normal"><path d="M299.1,75.8c2.5,-0.3 5,-0.4 7.5,-0.4c32.2,0.2 61.2,11.2 87.4,31.8c0.5,0.4 1,0.8 1.5,1.2c3.5,2.8 6.6,5.9 9.4,9.4c2.8,3.5 5.2,7.2 7.1,11.2c13.3,27.4 17.7,60.5 7.4,94.8c-7.2,23.7 -28,40.7 -52.6,43.2c-52.1,5.3 -97.5,-12.5 -137.4,-49.7c-19.4,-18.1 -25.1,-46.7 -13.8,-70.7c12.4,-26.5 32.4,-48.4 62.5,-64.1c2.5,-1.3 5.2,-2.5 7.8,-3.4" fill="#000000" stroke="#000000" stroke-width="3.4218" stroke-linecap="round" stroke-linejoin="round"/><path d="M344.3,254.9c-35.6,34 -39.1,90.9 -16.1,135.5c-113.2,46.9 -154.8,-12.6 -139.5,-94c6.9,-36.7 23.9,-70.8 48,-99.4l5.5,-6.6z" fill="#000000" stroke="#000000" stroke-width="3.4218" stroke-linecap="round" stroke-linejoin="round"/><path d="M272,421.6c20.3,-0.8 47.4,-6.5 67,-25.8c25.4,-25.1 15.6,-52.3 42.2,-84.2c0.6,-0.7 1.2,-1.4 1.8,-2.1c23,-27.3 51.8,-37.3 83.2,-20.3v0c-22.3,-6.5 -29.7,4 -39.6,17.5c10.7,-8.8 25.3,-7.6 25.3,-7.6c-60.7,28.8 -35.8,88 -85.1,131.9c-27,33.7 -97.5,30.8 -97.5,30.8" fill="#000000" stroke="#000000" stroke-width="3.4218" stroke-linecap="round" stroke-linejoin="round"/><path d="M237.9,124c-12.4,-30 16.6,-75.1 37,-101.4l46.9,59.2" fill="#000000" stroke="#000000" stroke-width="3.4218" stroke-linecap="round" stroke-linejoin="round"/><path d="M404.9,117.7c2.8,3.5 5.2,7.2 7.1,11.2c13.3,27.4 17.7,60.5 7.4,94.8c-7.2,23.7 -28,40.7 -52.6,43.2c-52.1,5.3 -97.5,-12.5 -137.4,-49.7c-19.4,-18.1 -25.1,-46.7 -13.8,-70.7c12.4,-26.5 32.4,-48.4 62.5,-64.1c2.5,-1.3 5.2,-2.5 7.8,-3.4" fill="#000000" stroke="#000000" stroke-width="3.4218" stroke-linecap="round" stroke-linejoin="round"/><path d="M345.2,98.8c-8.3,-9.6 -28.5,-19.7 -45.8,-23.1c17.6,-4.5 45.9,5.3 45.9,5.3c-7.2,-9.3 -15.8,-11.8 -30.3,-16.2c45,2.1 72.5,23.1 81.4,43.7" fill="#000000" stroke="#000000" stroke-width="3.4218" stroke-linecap="round" stroke-linejoin="round"/><path d="M384,98.9l73.8,-16.2c-0.8,33.3 -4,89.3 -32.7,104.7" fill="#000000" stroke="#000000" stroke-width="3.4218" stroke-linecap="round" stroke-linejoin="round"/><path d="M185.7,288.6c-7.3,-1 -17.7,-0.3 -22.7,-6.1c-11.5,-13.3 -6.3,-34.6 10.7,-39.3c0.2,0 0.3,-0.1 0.5,-0.1c12.5,-3.2 25.2,4.8 28.6,17.3c1,3.9 1.3,8 0.6,12.5" fill="#000000" stroke="#000000" stroke-width="3.4218" stroke-linecap="round" stroke-linejoin="round"/><path d="M285.5,291.2c-5.9,6.2 -17.2,16 -35.3,17.9c-40.4,0.2 -71.9,-4.7 -87.2,-26.5l38.1,-16.1c15.3,7.2 63.5,10.2 69.7,7.9" fill="#000000" stroke="none" stroke-width="1" stroke-linecap="butt" stroke-linejoin="miter"/><g fill="none" stroke="#000000" stroke-width="3.4218" stroke-linecap="round" stroke-linejoin="round"><path d="M246.9,273c-5,1.9 -27,0.7 -45.8,-6.5"/><path d="M293.4,292.2c-1.5,1.6 -4.2,3.5 -7.4,5.5c-15,9.4 -32.4,14.1 -50.1,14c-33.2,-0.1 -61.2,-12.5 -72.9,-29.1"/></g><path d="M78.3,87.6v0c-1.5,1.3 -3.3,2 -5.1,2.1l-5.5,0.3c-2.8,0.1 -5.4,1.7 -6.8,4.2l-1.2,2c-1.4,2.4 -3.8,3.9 -6.5,4.1l-1.1,0.1c-3.5,0.3 -6.4,2.8 -7.3,6.2l-0.1,0.6c-0.6,2.5 -2.4,4.6 -4.8,5.6l-15.9,-15.1c1.6,-7.5 5,-13.6 10.9,-18c9.8,-6.7 19.3,-8.9 28.4,-5.9c6.9,2.1 12.1,7.3 15,13.8z" fill="#000000" stroke="#000000" stroke-width="3.4218" stroke-linecap="round" stroke-linejoin="round"/><path d="M64.1,86.6c2.8,3.5 4.5,7.3 5.5,11.2c3,12.6 -4.2,25.7 -16.7,28.9c-0.2,0 -0.3,0.1 -0.5,0.1c-17.2,4.1 -32,-12 -28.4,-29.2c1.6,-7.5 5,-13.6 10.9,-18" fill="#000000" stroke="#000000" stroke-width="3.4218" stroke-linecap="round" stroke-linejoin="round"/></g></g></svg>