<svg version="1.1" xmlns="http://www.w3.org/2000/svg" xmlns:xlink="http://www.w3.org/1999/xlink" width="166.31959" height="164.90303" viewBox="0,0,166.31959,164.90303"><g transform="translate(-209.81086,-100.2)"><g data-paper-data="{&quot;isPaintingLayer&quot;:true}" fill="#ffffff" fill-rule="nonzero" stroke="none" stroke-width="0" stroke-miterlimit="10" stroke-dasharray="" stroke-dashoffset="0" style="mix-blend-mode: normal"><path d="M335.2,140.9c1.6,-0.2 3.2,-0.3 4.9,-0.3c18.2,-0.1 34.2,11.4 35.9,25.7c1.6,14.3 -11.7,25.9 -29.9,26c-0.6,0 -1.2,0 -1.8,0c-1.8,-0.1 -3.7,-0.3 -5.5,-0.6c-14.9,-2.5 -27.1,-12.8 -28.5,-25.1c-1.5,-13 9.4,-23.8 24.9,-25.7z" stroke-linecap="round" stroke-linejoin="round"/><path d="M255.5,142.7c-1.8,1.3 -3.8,2.3 -5.9,3.1c-0.2,0.1 -0.3,0.1 -0.5,0.2c-9.2,3 -20.7,0.6 -30.2,-6.1c0.4,-0.7 0.7,-1.4 1.1,-2.1c0.2,-0.4 0.5,-0.9 0.7,-1.3c0.5,-0.8 0.9,-1.6 1.4,-2.4c1.7,-2.9 3.5,-5.6 5.4,-8.4c1.6,-2.3 3.4,-4.6 5.2,-6.9c2.4,-3 5,-5.9 7.8,-8.8c3.2,-3.3 6.7,-6.5 10.4,-9.6c0.1,-0.1 0.1,-0.1 0.2,-0.2c1.1,0.9 2.1,1.9 3,3c1.1,1.2 2.2,2.5 3.1,3.8c9.3,12.6 8.8,27.9 -1.7,35.7z" stroke-linecap="round" stroke-linejoin="round"/><path d="M240.1,262.5c-4.1,-4.3 -14,-2.3 -25.4,1.2c8.7,-8.3 17.5,-14.7 27,-13.5c-3,-4.3 -7.3,-6 -12.8,-5.4c7.5,-6.5 13.9,-7 19.4,-2.3" stroke-linecap="round" stroke-linejoin="round"/><path d="M321.2,265.1c-0.7,0 -1.5,0 -2.2,-0.1c-32.7,-6.2 -62.4,-22.5 -89.6,-47.9c-19.4,-18.1 -25.1,-46.7 -13.9,-70.7c2,-4.2 4.1,-8.3 6.5,-12.3l1.2,0.1c6.3,10.4 27.6,12.2 27.6,12.2c-14.4,21.1 28.9,48.6 56.7,22.8c16.7,2.6 41.9,9.5 59,19.9c0.1,0.7 0.5,1.8 1,3c15.8,34.1 -8.9,73.4 -46.3,73z" stroke-linecap="butt" stroke-linejoin="miter"/><g><path d="M250.8,146.5l-13.2,15.5l-24.6,-9.3c0.7,-2.1 1.6,-4.2 2.5,-6.3c1.1,-2.3 2.2,-4.5 3.4,-6.7c0.4,-0.7 0.7,-1.4 1.1,-2.1c0.2,-0.4 0.5,-0.9 0.7,-1.3c0.5,-0.8 0.9,-1.6 1.4,-2.4c7.7,2.5 15.3,5.5 22.1,9c1.8,0.9 3.5,1.9 5.2,2.8c0.6,0.3 1,0.5 1.4,0.8z" stroke-linecap="butt" stroke-linejoin="miter"/><path d="M250.8,146.5l-1.7,-0.6l-6.8,-2.3l-21.4,-7.2c0.5,-0.8 0.9,-1.6 1.4,-2.4c7.7,2.5 15.3,5.5 22.1,9c1.8,0.9 3.5,1.9 5.2,2.8c0.4,0.2 0.8,0.4 1.2,0.7z" stroke-linecap="round" stroke-linejoin="round"/></g><g><path d="M307.5,169.2c16.7,2.6 41.9,9.5 59,19.9l-13.2,15.6l-45.6,-17.2z" stroke-linecap="butt" stroke-linejoin="miter"/><path d="M307.5,169.2c16.7,2.6 41.9,9.5 59,19.9" stroke-linecap="round" stroke-linejoin="round"/></g></g></g></svg>