<svg xml:space="preserve" viewBox="0 0 480 360" y="0px" x="0px" xmlns:xlink="http://www.w3.org/1999/xlink" xmlns="http://www.w3.org/2000/svg" id="Layer_1" version="1.1">
<path d="M177.8,242.5c-1.2,0.1-2.4,0.3-3.7,0.6c-0.2,0-0.3,0.1-0.5,0.1c-7.9,2.2-13.3,8-15.6,14.9
	c-5.7,3.3-11.9,6-18.5,8.1c-46.7,14.4-96.3-11.8-110.7-58.6c-8.8-28.7-2.4-58.4,14.7-80.4c2.8,0.4,5.7,0.3,8.8-0.4
	c0.1,0,0.3-0.1,0.5-0.1c10.3-2.7,17.1-12.1,17.4-22.4c5.4-3,11.1-5.5,17.2-7.4c46.7-14.4,96.3,11.8,110.7,58.6
	C207.9,187.2,199.1,220.1,177.8,242.5z" fill="#5D0134"></path>
</svg>
