<svg version="1.1" xmlns="http://www.w3.org/2000/svg" xmlns:xlink="http://www.w3.org/1999/xlink" width="102.31301" height="101.1659" viewBox="0,0,102.31301,101.1659"><g transform="translate(-63,-129.48827)"><g data-paper-data="{&quot;isPaintingLayer&quot;:true}" fill="#fdbf00" fill-rule="nonzero" stroke="none" stroke-width="1" stroke-linecap="butt" stroke-linejoin="miter" stroke-miterlimit="10" stroke-dasharray="" stroke-dashoffset="0" style="mix-blend-mode: normal"><path d="M164.1,182.7c0.2,0.6 0.3,1.1 0.5,1.7c0,0.2 0,0.3 0,0.5c0.3,2.4 0.8,4.8 0.7,7.2c-0.4,6.4 -1.8,12.4 -6.5,17c-2.9,2.8 -6.4,4.4 -10.3,5.2c-5.3,1.1 -10.1,0.3 -14.3,-2.9c-3.3,-2.5 -5.4,-5.9 -6.5,-9.7c-1.3,-4.5 -2.4,-9.1 -3.5,-13.8c-1.2,-5.4 -2.2,-10.8 -3.3,-16.2c-1.2,-6.1 -1.6,-9.4 -2.9,-15.5c-0.4,-1.7 -0.8,-3.4 -1.2,-5.1c-6.8,2.1 -13.5,4.1 -20.2,6.2c0,0.2 0,0.3 0.1,0.4c1.4,6.6 1.9,10.3 3.2,16.9c1.7,8.3 3.4,16.6 5,24.9c0.8,4.3 1.4,8.7 1.5,13.2c0.1,3.5 0.1,7.1 -1.3,10.5c-1.9,4.9 -7,7.9 -12.2,7.4c-0.4,0 -0.8,-0.1 -1.2,-0.2c-8.4,-1.5 -13.3,-9.6 -11.1,-17.5c2.2,-7.9 5.2,-19.7 5,-26c-0.2,-8.6 -0.9,-14.2 -3.1,-22.4c-0.2,-0.8 -0.5,-1.6 -0.7,-2.4c-0.2,0 -0.5,0 -0.7,0.1c-2.5,0.7 1,-0.5 -1.4,0.4c-6,2.3 -10.1,6.4 -11.7,12.5c-0.4,1.5 -0.8,3 -1.3,4.6c-0.1,0.3 -0.3,0.6 -0.5,0.7c-1,0.3 -2,0.5 -3.2,0.8c0.6,-5.6 1.1,-11 1.8,-16.5c0.6,-5 3.4,-8.8 8,-11.6c3.7,-2.2 7.6,-4 11.6,-5.4c7.3,-2.5 14.7,-5 22.1,-7.4c8.5,-2.7 24.6,-7.5 33.7,-10.3c3.8,-1.1 7.7,0.7 8.8,4.2l0.1,0.2c1.1,3.6 -1.1,7.5 -4.9,8.6c-4.7,1.4 -9.4,2.8 -14,4.2c-0.7,0.2 -0.9,0.4 -0.7,1.2c1.5,6.5 2.2,10.2 3.6,16.7c1.3,5.9 2.5,11.9 3.9,17.8c0.9,3.6 2.1,7.1 4.1,10.3c3.2,5.2 7.6,6.7 13.2,4.6c3.7,-1.4 6,-4 6.7,-7.7c0.3,-1.8 0.2,-3.6 -0.2,-5.4c-0.1,-0.4 0.2,-0.8 0.6,-0.9c0.9,-0.4 1.8,-0.8 2.7,-1.1z"/><path d="M106.3,218.7c-0.2,1.5 -0.5,3 -1.1,4.5c-1.9,4.9 -7,7.9 -12.2,7.4c-0.4,0 -0.8,-0.1 -1.2,-0.2c-8.4,-1.5 -13.3,-9.6 -11.1,-17.5c1.1,-3.8 2.3,-8.4 3.3,-12.9c1.1,-5 1.8,-9.8 1.8,-13.1c-0.1,-2.5 -0.2,-4.7 -0.3,-6.9c0.8,-3.2 1.4,-5.5 1.4,-5.5c3,33.3 -5,57.8 19.4,44.2z"/><path d="M164.1,200.1c-0.5,1.9 -1.3,3.7 -2.3,5.4c-0.8,1.2 -1.7,2.4 -2.8,3.5l-0.1,0.1c-2.9,2.8 -6.4,4.3 -10.3,5.2c-5.3,1.1 -10.1,0.3 -14.3,-2.9c-3.3,-2.5 -5.4,-5.9 -6.5,-9.8c-0.4,-1.4 -0.8,-2.9 -1.2,-4.3c-0.5,-2 -1,-4 -1.5,-6c-0.3,-1.1 -0.5,-2.3 -0.8,-3.5c-0.3,-1.2 -0.5,-2.3 -0.8,-3.5v0c2.6,3.8 10.1,20.9 19.8,22.7c7.9,1.5 14.1,-0.5 20.5,-6.9z"/><path d="M149.1,134.1l0.1,0.2c0,0.1 0,0.2 0.1,0.3c-28.5,7 -56.4,16 -83.7,27c1.2,-3.6 3.7,-6.4 7.3,-8.7c3.7,-2.2 7.6,-4 11.6,-5.4c7.3,-2.6 14.7,-5 22.1,-7.4c8.5,-2.7 24.6,-7.5 33.7,-10.3c3.7,-1.1 7.7,0.8 8.8,4.3z"/><g><path d="M92.59299,216.75777c-0.439,-1.42511 0.14646,-2.87037 1.30766,-3.22807c1.1612,-0.3577 2.45842,0.5076 2.89742,1.93271c0.439,1.42511 -0.14646,2.87037 -1.30766,3.22807c-1.1612,0.3577 -2.45842,-0.5076 -2.89742,-1.93271z"/><path d="M91.33663,209.66219c-0.24389,-0.79173 0.07186,-1.59172 0.70524,-1.78683c0.63338,-0.19511 1.34455,0.28854 1.58844,1.08027c0.24389,0.79173 -0.07186,1.59172 -0.70524,1.78683c-0.63338,0.19511 -1.34455,-0.28854 -1.58844,-1.08027z"/><path d="M98.37971,212.97793c-0.32519,-1.05564 0.09581,-2.12229 0.94032,-2.38244c0.84451,-0.26015 1.79273,0.38472 2.11792,1.44036c0.32519,1.05564 -0.09581,2.12229 -0.94032,2.38244c-0.84451,0.26015 -1.79273,-0.38472 -2.11792,-1.44036z"/><path d="M128.85412,178.23721c-0.69915,-2.26962 -0.79525,-4.2545 -0.21465,-4.43335c0.5806,-0.17885 1.61804,1.51605 2.31719,3.78567c0.69915,2.26962 0.79525,4.2545 0.21465,4.43335c-0.5806,0.17885 -1.61804,-1.51605 -2.31719,-3.78567z"/><path d="M126.37407,169.95956c-0.39022,-1.26676 0.10641,-2.54411 1.10927,-2.85304c1.00286,-0.30893 2.13217,0.46756 2.52239,1.73432c0.39022,1.26676 -0.10641,2.54411 -1.10927,2.85304c-1.00286,0.30893 -2.13217,-0.46756 -2.52239,-1.73432z"/><path d="M125.81982,173.63366c-0.16259,-0.52782 0.04791,-1.06115 0.47016,-1.19122c0.42225,-0.13007 0.89637,0.19236 1.05896,0.72018c0.16259,0.52782 -0.04791,1.06115 -0.47016,1.19122c-0.42225,0.13007 -0.89637,-0.19236 -1.05896,-0.72018z"/></g><path d="M164.1,182.7c0.2,0.6 0.3,1.1 0.5,1.7c0,0.2 0,0.3 0,0.5c0.3,2.4 0.8,4.8 0.7,7.2c-0.4,6.4 -1.8,12.4 -6.5,17c-2.9,2.8 -6.4,4.4 -10.3,5.2c-5.3,1.1 -10.1,0.3 -14.3,-2.9c-3.3,-2.5 -5.4,-5.9 -6.5,-9.7c-1.3,-4.5 -2.4,-9.1 -3.5,-13.8c-1.2,-5.4 -2.2,-10.8 -3.3,-16.2c-1.2,-6.1 -1.6,-9.4 -2.9,-15.5c-0.4,-1.7 -0.8,-3.4 -1.2,-5.1c-6.8,2.1 -13.5,4.1 -20.2,6.2c0,0.2 0,0.3 0.1,0.4c1.4,6.6 1.9,10.3 3.2,16.9c1.7,8.3 3.4,16.6 5,24.9c0.8,4.3 1.4,8.7 1.5,13.2c0.1,3.5 0.1,7.1 -1.3,10.5c-1.9,4.9 -7,7.9 -12.2,7.4c-0.4,0 -0.8,-0.1 -1.2,-0.2c-8.4,-1.5 -13.3,-9.6 -11.1,-17.5c2.2,-7.9 5.2,-19.7 5,-26c-0.2,-8.6 -0.9,-14.2 -3.1,-22.4c-0.2,-0.8 -0.5,-1.6 -0.7,-2.4c-0.2,0 -0.5,0 -0.7,0.1c-2.5,0.7 1,-0.5 -1.4,0.4c-6,2.3 -10.1,6.4 -11.7,12.5c-0.4,1.5 -0.8,3 -1.3,4.6c-0.1,0.3 -0.3,0.6 -0.5,0.7c-1,0.3 -2,0.5 -3.2,0.8c0.6,-5.6 1.1,-11 1.8,-16.5c0.6,-5 3.4,-8.8 8,-11.6c3.7,-2.2 7.6,-4 11.6,-5.4c7.3,-2.5 14.7,-5 22.1,-7.4c8.5,-2.7 24.6,-7.5 33.7,-10.3c3.8,-1.1 7.7,0.7 8.8,4.2l0.1,0.2c1.1,3.6 -1.1,7.5 -4.9,8.6c-4.7,1.4 -9.4,2.8 -14,4.2c-0.7,0.2 -0.9,0.4 -0.7,1.2c1.5,6.5 2.2,10.2 3.6,16.7c1.3,5.9 2.5,11.9 3.9,17.8c0.9,3.6 2.1,7.1 4.1,10.3c3.2,5.2 7.6,6.7 13.2,4.6c3.7,-1.4 6,-4 6.7,-7.7c0.3,-1.8 0.2,-3.6 -0.2,-5.4c-0.1,-0.4 0.2,-0.8 0.6,-0.9c0.9,-0.4 1.8,-0.8 2.7,-1.1z"/></g></g></svg>